<svg width="2em" height="2em" viewBox="0 0 24.00 24.00" fill="none"
     xmlns="http://www.w3.org/2000/svg" stroke="#a37575">
    <g id="SVGRepo_bgCarrier" stroke-width="0"/>
    <g id="SVGRepo_tracerCarrier" stroke-linecap="round" stroke-linejoin="round"
       stroke="#d12929" stroke-width="3.504">
        <path d="M12 6H12.01M9 20L3 17V4L5 5M9 20L15 17M9 20V14M15 17L21 20V7L19 6M15 17V14M15 6.2C15 7.96731 13.5 9.4 12 11C10.5 9.4 9 7.96731 9 6.2C9 4.43269 10.3431 3 12 3C13.6569 3 15 4.43269 15 6.2Z"
              stroke="#bdcaff" stroke-width="2" stroke-linecap="round"
              stroke-linejoin="round"/>
    </g>
    <g id="SVGRepo_iconCarrier">
        <path d="M12 6H12.01M9 20L3 17V4L5 5M9 20L15 17M9 20V14M15 17L21 20V7L19 6M15 17V14M15 6.2C15 7.96731 13.5 9.4 12 11C10.5 9.4 9 7.96731 9 6.2C9 4.43269 10.3431 3 12 3C13.6569 3 15 4.43269 15 6.2Z"
              stroke="#bdcaff" stroke-width="0.00024000000000000003" stroke-linecap="round"
              stroke-linejoin="round"/>
    </g>
</svg>